<svg version="1.1" xmlns="http://www.w3.org/2000/svg" width="200" height="253.3426" viewBox="0 0 118.963 150.692">
<title>CCR S. A.</title>
<path fill="#000" d="M101.114,107.143h2.541c5.086,0,8.91,0.876,11.479,2.645 c2.518,1.772,3.829,4.417,3.829,7.883c0,3.159-1.028,5.65-3.083,7.499c-2.004,1.926-4.93,3.03-8.629,3.313 c1.104,0.643,2.002,1.514,2.672,2.492c0.641,0.947,1.154,2.334,1.539,4.26l3.159,14.432h-11.194l-2.313-10.526v-14.382 c1.671-0.203,3.004-0.669,4.006-1.36c1.488-0.952,2.131-2.339,2.131-4.031c0-1.49-0.436-2.595-1.463-3.312 c-0.952-0.746-2.415-1.105-4.341-1.105h-0.333 M87.608,107.143h13.506v7.806h-4.16l-1.975,9.938h4.029 c0.773,0,1.465-0.054,2.105-0.13v14.382l-0.695-3.187c-0.305-1.154-0.74-2.053-1.539-2.488c-0.744-0.516-1.926-0.744-3.542-0.744 h-2.056l-3.543,16.945h-9.627v-6.985L87.608,107.143z M80.112,113.1l1.463-4.417c-0.489-0.153-0.975-0.306-1.463-0.462V113.1z M80.112,149.665h-1.465l1.465-6.985V149.665z M80.112,108.221c-2.105-0.643-4.058-1.078-6.037-1.437 c-2.438-0.463-4.723-0.67-6.959-0.67c-4.416,0-8.187,0.594-11.347,1.822c-3.237,1.186-6.033,3.031-8.525,5.598 c-2.082,2.133-3.699,4.727-4.853,7.73c-0.798,2.056-1.336,4.161-1.593,6.315v6.37c0.539,4.727,2.338,8.523,5.418,11.352 c3.749,3.541,8.96,5.391,15.662,5.391c1.849,0,3.747-0.156,5.679-0.461c1.871-0.284,3.873-0.643,6.005-1.158l1.028-9.809 c-1.773,0.822-3.465,1.49-5.162,1.926c-1.67,0.436-3.362,0.668-4.982,0.668c-3.748,0-6.675-0.975-8.883-2.953 c-2.133-1.898-3.237-4.623-3.237-7.932c0-5.135,1.468-9.193,4.341-12.119c2.85-2.878,6.831-4.342,11.966-4.342 c1.898,0,3.672,0.206,5.365,0.719c1.695,0.436,3.236,1.104,4.699,2.056l1.414-4.188V108.221z M40.799,109.249v-0.615 c0.05,0.025,0.13,0.025,0.18,0.049L40.799,109.249z M40.799,108.634v0.615l-2.621,8.038c-1.54-0.952-3.08-1.62-4.772-2.056 c-1.619-0.513-3.469-0.719-5.368-0.719c-5.085,0-9.14,1.464-11.99,4.342c-2.877,2.926-4.29,6.984-4.29,12.119 c0,3.309,1.028,6.033,3.236,7.932c2.158,1.979,5.162,2.953,8.833,2.953c1.693,0,3.39-0.232,5.006-0.668 c1.696-0.436,3.469-1.104,5.238-1.926l-1.104,9.809c-2.078,0.516-4.134,0.874-6.033,1.158c-1.925,0.305-3.825,0.461-5.674,0.461 c-6.701,0-11.837-1.85-15.611-5.391C1.899,141.858,0,136.931,0,130.663c0-3.209,0.589-6.369,1.77-9.398 c1.158-3.004,2.773-5.598,4.851-7.73c2.492-2.566,5.369-4.412,8.525-5.598c3.16-1.229,6.984-1.822,11.351-1.822 c2.258,0,4.62,0.207,6.984,0.67C35.843,107.192,38.28,107.784,40.799,108.634z M40.799,127.58c-0.13,1.002-0.179,2.03-0.179,3.083 c0,1.133,0.048,2.236,0.179,3.287V127.58z"/>
<path fill="#B30000" d="M60.874,9.215c7.186,3.367,12.038,9.683,12.038,17.049 c0,7.295-4.825,13.741-12.038,16.847 M60.874,82.679c7.828,2.901,17.304,2.671,24.545-0.794c-3.467,2.284-7.291,4.108-11.349,5.364 c-4.058,1.207-8.296,1.926-12.456,1.979l-0.715,0.022c0,0,0,0-0.025,0V82.679z M60.874,80.345c3.465,1.54,7.496,2.41,11.81,2.41 c19.746,0,32.611-20.593,32.813-38.566c-0.154-14.482-7.188-27.319-17.996-35.305c6.648,6.24,11.194,17.075,11.194,30.093 c0,12.788-7.935,33.558-25.011,33.558c-5.082,0-9.296-3.465-9.525-8.65c-0.233-7.138,4.982-7.756,9.809-10.45 c8.397-4.598,11.939-8.888,14.816-17.771C93.175,21.748,82.748,0.229,61.152,0h-0.278v6.522C69.245,9.575,75.79,16.254,75.79,26.42 c0,9.014-5.984,15.716-14.252,19.257c-0.229,0.076-0.436,0.18-0.664,0.283V80.345z M34.246,80.367 c-1.543-1.127-2.98-2.36-4.368-3.671c-8.317-8.035-13.507-19.257-13.609-31.736C16.425,26.987,29.16,6.626,48.83,6.626 c4.39,0,8.498,0.92,12.044,2.589v33.896c-0.055,0.026-0.104,0.05-0.181,0.076c-8.371,3.623-14.741,10.449-14.741,19.566 c0,10.168,6.548,16.847,14.921,19.926v6.572c-21.802-0.229-32.307-21.824-27.835-35.74c2.796-8.964,6.342-13.175,14.737-17.848 c4.905-2.644,10.067-3.313,9.834-10.374c-0.153-5.288-4.39-8.73-9.525-8.73c-17.076,0-25.012,20.823-25.012,33.638 C23.073,63.139,27.593,74.105,34.246,80.367z M60.874,0h-0.158c-9.009,0.022-17.38,2.721-24.392,7.366 c7.241-3.465,16.716-3.721,24.55-0.844V0z M60.874,45.96c-6.985,3.313-11.968,10.324-11.968,17.538 c0,7.447,4.803,13.61,11.968,16.847V45.96z"/>
</svg>