<?xml version="1.0" encoding="UTF-8" standalone="no"?>
<!-- Created with Inkscape (http://www.inkscape.org/) -->

<svg
   xmlns:dc="http://purl.org/dc/elements/1.1/"
   xmlns:cc="http://creativecommons.org/ns#"
   xmlns:rdf="http://www.w3.org/1999/02/22-rdf-syntax-ns#"
   xmlns:svg="http://www.w3.org/2000/svg"
   xmlns="http://www.w3.org/2000/svg"
   xmlns:xlink="http://www.w3.org/1999/xlink"
   version="1.1"
   width="115.64558"
   height="115.64558"
   id="svg2">
  <defs
     id="defs4">
    <linearGradient
       id="linearGradient3775">
      <stop
         id="stop3777"
         style="stop-color:#ffffff;stop-opacity:1"
         offset="0" />
      <stop
         id="stop3797"
         style="stop-color:#017bc2;stop-opacity:1"
         offset="0.36270648" />
      <stop
         id="stop3783"
         style="stop-color:#017bc2;stop-opacity:1"
         offset="0.63469803" />
      <stop
         id="stop3779"
         style="stop-color:#ffffff;stop-opacity:1"
         offset="1" />
    </linearGradient>
    <linearGradient
       x1="59.777348"
       y1="2.0943375"
       x2="59.777348"
       y2="110.79292"
       id="linearGradient3781"
       xlink:href="#linearGradient3775"
       gradientUnits="userSpaceOnUse" />
  </defs>
  <metadata
     id="metadata7">
    <rdf:RDF>
      <cc:Work
         rdf:about="">
        <dc:format>image/svg+xml</dc:format>
        <dc:type
           rdf:resource="http://purl.org/dc/dcmitype/StillImage" />
        <dc:title></dc:title>
      </cc:Work>
    </rdf:RDF>
  </metadata>
  <g
     transform="translate(-2.3146348,-3.0017296)"
     id="layer2"
     style="display:inline">
    <path
       d="m 61.563797,56.443626 a 1.7864494,54.349289 0 1 1 -3.572899,0 1.7864494,54.349289 0 1 1 3.572899,0 z"
       transform="matrix(31.807668,0,0,1.0455112,-1841.2406,1.8120763)"
       id="path3771"
       style="fill:url(#linearGradient3781);fill-opacity:1;fill-rule:nonzero;stroke:none" />
    <path
       d="m 60.125,5.9375 c -30.319837,0 -54.875,24.555162 -54.875,54.875 0,30.319838 24.555163,54.90625 54.875,54.90625 30.319837,0 54.90625,-24.586412 54.90625,-54.90625 0,-30.319838 -24.586413,-54.875 -54.90625,-54.875 z m 0,2.875 c 23.185753,0 42,23.273947 42,52 0,28.726053 -18.814247,52.03125 -42,52.03125 -23.185753,0 -41.96875,-23.305197 -41.96875,-52.03125 0,-28.726053 18.782997,-52 41.96875,-52 z"
       id="path3787"
       style="fill:#017bc2;fill-opacity:1;fill-rule:nonzero;stroke:none" />
  </g>
  <g
     transform="translate(-2.3146348,-3.0017296)"
     id="layer3"
     style="display:inline">
    <path
       d="M 28.15625,32.4375 19.875,86.875 l 16.9375,0 L 41.625,56.46875 53.5,78.15625 71.65625,56.46875 67.46875,86.875 84,86.875 c 2.914703,-4.318568 6.393598,-8.428842 12.65625,-13.4375 4.37041,-3.230754 12.09057,-6.625324 16.53125,-8 -10.09445,0.487648 -13.04255,2.201753 -17.40625,3.71875 -3.185515,1.107413 -7.00669,3.135533 -9.875,5.34375 L 92.5,32.4375 l -19.09375,0 L 56.75,52.09375 45.65625,32.4375 l -17.5,0 z"
       id="path2996"
       style="fill:#ffffff;stroke:none;display:inline" />
  </g>
</svg>
