<?xml version="1.0" encoding="UTF-8" standalone="no"?>
<!-- Created with Inkscape (http://www.inkscape.org/) -->

<svg
   xmlns:dc="http://purl.org/dc/elements/1.1/"
   xmlns:cc="http://creativecommons.org/ns#"
   xmlns:rdf="http://www.w3.org/1999/02/22-rdf-syntax-ns#"
   xmlns:svg="http://www.w3.org/2000/svg"
   xmlns="http://www.w3.org/2000/svg"
   xmlns:sodipodi="http://sodipodi.sourceforge.net/DTD/sodipodi-0.dtd"
   xmlns:inkscape="http://www.inkscape.org/namespaces/inkscape"
   width="210mm"
   height="297mm"
   id="svg3712"
   version="1.1"
   inkscape:version="0.48.0 r9654"
   sodipodi:docname="Novo documento 2">
  <defs
     id="defs3714" />
  <sodipodi:namedview
     id="base"
     pagecolor="#ffffff"
     bordercolor="#666666"
     borderopacity="1.0"
     inkscape:pageopacity="0.0"
     inkscape:pageshadow="2"
     inkscape:zoom="0.35"
     inkscape:cx="350"
     inkscape:cy="520"
     inkscape:document-units="px"
     inkscape:current-layer="layer1"
     showgrid="false"
     inkscape:window-width="482"
     inkscape:window-height="453"
     inkscape:window-x="132"
     inkscape:window-y="174"
     inkscape:window-maximized="0" />
  <metadata
     id="metadata3717">
    <rdf:RDF>
      <cc:Work
         rdf:about="">
        <dc:format>image/svg+xml</dc:format>
        <dc:type
           rdf:resource="http://purl.org/dc/dcmitype/StillImage" />
        <dc:title></dc:title>
      </cc:Work>
    </rdf:RDF>
  </metadata>
  <g
     inkscape:label="Camada 1"
     inkscape:groupmode="layer"
     id="layer1">
    <g
       transform="matrix(11.707765,0,0,10.614645,12.800135,-1306.2833)"
       id="g10">
      <path
         style="fill:#2c2c2b;stroke:none"
         d="m 28.566,184.55 0,-9.561 c 0,0 -0.1376,-1.081 -1.4433,-1.486 l 1.993,-5.608 2.0621,5.54 c 0,0 -1.3747,0.338 -1.581,1.554 l 0.1247,9.561 -1.1555,0 z"
         id="path12"
         inkscape:connector-curvature="0" />
      <path
         style="fill:#2c2c2b;stroke:none"
         d="m 41.075,184.499 8.712,0 0,-5.22 c 0,0 -6.0313,0.558 -8.712,5.22 z"
         id="path14"
         inkscape:connector-curvature="0" />
      <path
         style="fill:#2c2c2b;stroke:none"
         d="m 40.3019,184.55 -1.134,0 c 0,0 2.7321,-6.842 10.6191,-7.044 l 0,1.064 c 0,0 -6.8561,0.304 -9.4851,5.98 z"
         id="path16"
         inkscape:connector-curvature="0" />
      <path
         style="fill:#2c2c2b;stroke:none"
         d="m 40.0699,174.82 c 0,0 1.4434,1.85 -0.0774,4.156 0,0 0.9022,-0.102 1.1599,-0.229 0,0 -0.2577,-1.367 0.7216,-1.849 0,0 0.1289,-0.583 3.6601,-0.836 l 0.1031,-0.253 c 0,0 -3.0415,0.405 -5.3353,-1.242 l -0.232,0.253 z"
         id="path18"
         inkscape:connector-curvature="0" />
      <path
         style="fill:#2c2c2b;stroke:none"
         d="m 45.8433,174.01 0.1291,0.709 0.1803,-0.126 0.1031,-0.153 0.1806,-0.253 0.1028,-0.152 -0.1028,-0.076 -0.1289,-0.101 -0.1034,0.101 -0.1029,0.051 -0.2579,0 z"
         id="path20"
         inkscape:connector-curvature="0" />
      <path
         style="fill:#2c2c2b;stroke:none"
         d="m 46.6938,173.376 c -0.0772,0 -0.2574,0.026 -0.2574,0.026 l -0.0518,0.076 -0.1545,0.05 -0.1546,0.076 -0.2322,0.076 -0.0772,-0.152 0.0772,-0.228 0.0516,-0.076 0.0515,-0.127 0.0774,0.076 0.1032,-0.025 0.2062,-0.025 0.232,-0.051 0.1803,0 0,0.177 -0.0517,0.127 z"
         id="path22"
         inkscape:connector-curvature="0" />
      <path
         style="fill:#2c2c2b;stroke:none"
         d="m 46.6683,172.565 0.0772,-0.152 0.3091,-0.126 0.1034,-0.051 0.1289,-0.05 0.0514,-0.153 -0.0514,-0.101 -0.1289,-0.076 -0.1805,0.025 -0.2064,0.026 -0.0773,-0.026 -0.232,0.077 -0.206,0.101 c -0.0517,0.127 -0.1031,0.228 -0.1031,0.228 l 0.1031,0.152 0.0774,0.126 0.1286,0.178 0.2065,-0.178 z"
         id="path24"
         inkscape:connector-curvature="0" />
      <path
         style="fill:#2c2c2b;stroke:none"
         d="m 30.559,181.813 c 0,0 1.5123,-2.804 4.2612,-3.716 0,0 3.4369,-2.229 3.643,-5 0,0 -1.3057,2.331 -2.5428,2.771 0,0 -2.715,1.216 -3.9523,2.398 0,0 -0.4122,-0.067 -0.0343,-0.338 0.378,-0.27 3.0587,-2.331 3.6769,-2.635 0,0 1.6499,-0.304 2.7496,-2.905 0,0 1.7527,-3.209 2.8178,-3.446 0,0 -1.7179,-0.287 -3.9692,3.395 0,0 -0.8591,2.028 -2.8524,2.5 l -2.2509,0.912 c 0,0 1.3747,-1.334 2.8869,-1.875 0,0 1.1685,-0.523 2.2853,-2.398 0,0 2.1821,-2.922 3.8832,-2.736 0,0 0.6873,0.32 2.4915,0.287 0,0 0.1717,0.473 0.9109,0.422 0,0 0.1888,0.27 -0.7735,0.659 l 1.7359,0.085 0.9794,-0.828 0.206,0.709 c 0,0 0.2748,0.405 0.2063,-0.203 -0.0689,-0.608 0.1028,-0.76 0.2234,-0.811 0.12,-0.05 -0.3954,-1.131 2.6287,-1.79 l -0.3952,-0.523 c 0,0 -3.9691,1.993 -11.289,0.853 0,0 -2.0364,1.596 -2.4487,2.356 0,0 -1.5982,1.925 -2.655,2.077 l 0.5157,0.786 c 0,0 1.8042,-1.14 2.3454,-1.9 0,0 1.7783,-2.61 4.0983,-2.433 0,0 0.1545,0.254 -0.3869,0.279 0,0 -2.4484,0.912 -3.7114,2.964 0,0 -0.3866,1.115 -3.4022,1.976 0,0 -1.7012,0.305 -2.0361,1.875 l -0.026,6.436 c 0,0 0.026,0.05 0.1805,-0.203 z"
         id="path26"
         inkscape:connector-curvature="0" />
      <path
         style="fill:#2c2c2b;stroke:none"
         d="m 30.4219,184.583 c 0,0 0.034,-0.912 0.4126,-1.047 0.3774,-0.135 0.9276,-0.034 0.9276,-0.034 0,0 0.378,0.372 0.4122,1.013 l -1.7524,0.068 z"
         id="path28"
         inkscape:connector-curvature="0" />
      <path
         style="fill:#2c2c2b;stroke:none"
         d="m 32.3461,183.232 c 0,0 1.0654,-0.203 1.4779,-0.406 0,0 0.8245,1.352 0.7902,1.689 l -1.6496,0 c 0,0 -0.5842,-0.911 -0.6185,-1.283 z"
         id="path30"
         inkscape:connector-curvature="0" />
      <path
         style="fill:#2c2c2b;stroke:none"
         d="m 34.5111,182.523 c 0,0 1.0654,-0.574 1.237,-0.777 0.1723,-0.203 0.6877,1.25 0.6877,1.25 l -1.2373,1.182 -0.6874,-1.655 z"
         id="path32"
         inkscape:connector-curvature="0" />
      <path
         style="fill:#2c2c2b;stroke:none"
         d="m 36.1953,181.543 1.2714,-1.25 0.7216,0.946 -1.3059,1.317 -0.6871,-1.013 z"
         id="path34"
         inkscape:connector-curvature="0" />
      <path
         style="fill:#2c2c2b;stroke:none"
         d="m 35.7142,184.515 1.8899,0.068 -0.8249,-1.081 -1.065,1.013 z"
         id="path36"
         inkscape:connector-curvature="0" />
      <path
         style="fill:#2c2c2b;stroke:none"
         d="m 37.1575,183.164 1.4434,-1.418 0.5496,0.878 c 0,0 -0.9279,0.946 -0.9279,1.621 l -1.0651,-1.081 z"
         id="path38"
         inkscape:connector-curvature="0" />
      <path
         style="fill:#2c2c2b;stroke:none"
         d="m 38.9788,181.374 0.9623,-1.284 0.6528,0.811 -1.134,1.048 -0.4811,-0.575 z"
         id="path40"
         inkscape:connector-curvature="0" />
      <path
         style="fill:#2c2c2b;stroke:none"
         d="m 37.9135,179.82 c 0,0 0.5839,0.946 0.5839,1.115 0,0.169 0.9282,-1.082 0.9282,-1.082 l -1.5121,-0.033 z"
         id="path42"
         inkscape:connector-curvature="0" />
      <path
         style="fill:#2c2c2b;stroke:none"
         d="m 40.319,179.752 c 0,0 0.5845,0.507 0.8251,0.44 0,0 0.0686,-0.507 0.3091,-0.507 0,0 0.3437,-0.507 -0.172,-0.507 0,0 -0.8587,0.372 -0.9622,0.574 z"
         id="path44"
         inkscape:connector-curvature="0" />
      <path
         style="fill:#2c2c2b;stroke:none"
         d="m 42.3123,179.111 -0.172,-0.372 c 0,0 1.0997,-0.034 0.172,0.372 z"
         id="path46"
         inkscape:connector-curvature="0" />
      <path
         style="fill:#2c2c2b;stroke:none"
         d="m 31.5213,181.813 c 0,0 0.1377,0.98 0.0346,1.013 l -0.6534,0.068 c 0,0 -0.0686,-0.541 0.1031,-0.574 l 0.2063,-0.574 0.3094,0.067 z"
         id="path48"
         inkscape:connector-curvature="0" />
      <path
         style="fill:#2c2c2b;stroke:none"
         d="m 31.8995,181.34 0.2403,1.351 1.4091,-0.304 -0.1374,-1.452 c 0,0 -1.2717,0.405 -1.512,0.405 z"
         id="path50"
         inkscape:connector-curvature="0" />
      <path
         style="fill:#2c2c2b;stroke:none"
         d="m 33.9612,180.462 1.3747,-0.743 0.206,1.588 -1.3399,0.709 -0.1717,-0.338 -0.0691,-1.216 z"
         id="path52"
         inkscape:connector-curvature="0" />
      <path
         style="fill:#2c2c2b;stroke:none"
         d="m 35.7481,179.313 0.2409,1.723 1.2025,-1.385 -1.4434,-0.338 z"
         id="path54"
         inkscape:connector-curvature="0" />
      <path
         style="fill:#2c2c2b;stroke:none"
         d="m 49.787,194.431 -21.2898,0 0,-8.615 21.2898,0 0,8.615 z"
         id="path56"
         inkscape:connector-curvature="0" />
      <path
         style="fill:#2c2c2b;stroke:none"
         d="m 33.8583,180.023 -0.3783,-0.507 1.2374,-0.709 0.3436,0.338 -1.2027,0.878 z"
         id="path58"
         inkscape:connector-curvature="0" />
      <path
         style="fill:#2c2c2b;stroke:none"
         d="m 31.9336,180.901 c 0,0 0.5499,-0.101 0.7217,-0.101 0.1719,0 0.4813,-0.541 0.4813,-0.541 l -0.0688,-0.439 c 0,0 -0.8591,0.777 -1.1342,1.081 z"
         id="path60"
         inkscape:connector-curvature="0" />
      <path
         style="fill:#ffffff;stroke:none"
         d="m 35.7042,187.027 0,3.811 c 0,0.544 -0.1454,0.721 -0.3003,1.014 -0.1551,0.292 -0.4545,0.545 -0.8978,0.757 -0.4437,0.212 -0.9852,0.318 -1.6241,0.318 -0.6473,0 -0.9742,-0.092 -1.3906,-0.274 -0.4164,-0.184 -0.7158,-0.435 -0.8981,-0.753 -0.1814,-0.319 -0.2043,-0.283 -0.2043,-0.777 l 0,-4.096 1.2537,0 0,4.014 c 0,0.549 0.2825,0.72 0.5751,0.892 0.2926,0.172 0.6324,0.259 1.0197,0.259 0.4457,0 0.8021,-0.092 1.0692,-0.277 0.2675,-0.185 0.6062,-0.349 0.6062,-0.874 l 0,-4.014 0.7913,0 z"
         id="path62"
         inkscape:connector-curvature="0" />
      <path
         style="fill:#ffffff;stroke:none"
         d="m 38.216,192.917 -1.4307,0 0,-5.962 3.4613,0 0,0.595 -2.0306,0 0,1.937 1.8138,0 0,0.634 -1.8138,0 0,2.796 z"
         id="path64"
         inkscape:connector-curvature="0" />
      <path
         style="fill:#ffffff;stroke:none"
         d="m 43.7471,189.898 1.8987,2.843 -1.5586,0.044 -1.6571,-2.489 0,2.489 -1.3579,0 0,-5.81 2.524,0 c 0,0 1.6371,0.125 1.5688,1.543 0,0 0.0859,1.204 -1.4179,1.38 z m -0.172,-1.358 c 0.026,-0.507 -0.3738,-1.035 -0.3738,-1.035 l -0.7712,0 0,2.054 0.686,0 c 0.4557,-0.097 0.459,-1.019 0.459,-1.019 z"
         id="path66"
         inkscape:connector-curvature="0" />
      <path
         style="fill:#ffffff;stroke:none"
         d="m 46.6924,191.851 0,-4.889 1.4298,0 0,4.889 c 0,0.813 -0.1914,1.401 -0.5737,1.762 0,0 -1.1295,0.733 -1.6107,0.362 0,0 -0.1202,-0.22 0.172,-0.389 0,0 0.5499,-0.084 0.584,-0.878 0.0342,-0.794 -0.0014,-0.857 -0.0014,-0.857 z"
         id="path68"
         inkscape:connector-curvature="0" />
      <path
         style="fill:#2c2c2b;stroke:none"
         d="m 32.5438,171.527 c 0,0 1.1599,-0.101 2.1393,-1.343 0.9796,-1.242 2.5518,-3.04 3.1444,-3.116 0,0 0.3608,-0.355 0.5671,-0.862 0.2063,-0.507 0.1288,-0.354 0.3608,-0.329 0,0 0.5928,-0.152 0.5411,-0.482 -0.0489,-0.314 -0.1919,-0.651 -0.6735,-0.769 -0.0238,-0.006 -0.0484,-0.011 -0.0739,-0.016 -0.5411,-0.101 -2.8349,0.076 -3.9691,-0.431 0,0 -0.5928,1.115 2.3195,1.673 l 0.1034,0.43 c 0,0 -1.0568,0.051 -1.6499,-0.354 0,0 -0.3865,0.405 0.954,0.836 l 0.3605,0 -0.0771,0.354 c 0,0 -0.3351,0.532 -1.7787,-0.735 0,0 -0.0642,-0.506 -0.2577,-0.823 0,0 -1.0695,-1.115 -0.8249,-2.559 0,0 0.9797,0.875 1.5081,0.938 0.5281,0.063 3.5956,0.177 3.5956,0.177 0,0 1.2241,0.393 1.1083,1.203 0,0 -0.0387,1.001 -1.0826,1.115 0,0 -0.4252,0.532 0.219,0.634 0,0 3.6684,1.064 10.2843,-0.786 l -1.0184,-1.419 c 0,0 -0.6957,0.595 -1.2628,0.494 0,0 -1.5896,-2.444 -2.105,-2.529 0,0 -1.4262,1.047 -2.3028,0.422 0,0 -0.5325,-1.047 0.9108,-1.165 0,0 1.8556,-0.423 3.8493,2.686 0,0 0.9279,-0.338 1.2373,-0.592 0,0 -3.2823,-3.445 -6.1176,-4.256 -2.835,-0.811 -5.0343,-1.03 -6.9761,0.051 0,0 -3.1101,1.697 -3.0584,5.472 0,0 0.4636,2.255 0.7734,3.015 0,0 0.5925,1.09 -0.7477,3.066 z"
         id="path70"
         inkscape:connector-curvature="0" />
      <path
         style="fill:#2c2c2b;stroke:none"
         d="m 32.0024,171.045 c 0,0 0.1032,-0.684 0.3094,-0.811 0,0 0.4382,-1.089 -0.0774,-1.95 0,0 -0.73,-1.689 -0.5237,-2.601 0,0 0.3262,-0.828 -0.9114,-1.234 0,0 -0.0683,-0.253 0.9114,-0.236 0,0 0.1546,-0.608 0.1888,-1.148 l -0.6016,-0.643 c 0,0 0.3096,-0.135 0.9108,-0.05 0.6014,0.084 0.0517,0.034 0.0517,0.034 l 0.5497,-0.946 0,-0.439 c 0,0 -0.4812,-0.388 -0.6014,-0.828 0,0 0.5153,0.017 1.1682,0.591 l 0.705,-0.506 -0.0174,-0.507 c 0,0 -0.2922,-0.845 -0.2576,-1.216 0,0 0.7905,0.743 0.945,0.979 0,0 0.6872,-0.371 0.8417,-0.405 0,0 0.2234,-1.706 0.3091,-1.875 0,0 0.5331,0.98 0.5331,1.368 l 1.3228,-0.135 c 0,0 0.4468,-2.027 0.5846,-2.314 0,0 0.1891,2.027 0.1716,2.213 l 1.5982,0 c 0,0 0.6703,-2.061 0.8248,-2.196 l 0,2.348 c 0,0 0.9794,0.067 1.1857,0.253 l 1.5808,-1.875 c 0,0 -0.4643,1.757 -0.7391,2.179 0,0 2.2678,1.149 3.6257,2.111 0,0 0.9794,-2.939 5.1205,-2.111 0,0 -2.4141,-4.138 -9.5022,-4.923 0,0 -5.6705,-0.38 -9.3046,2.812 0,0 -3.0415,1.951 -3.1446,7.727 0,0 0.6185,4.358 2.2424,6.334 z"
         id="path72"
         inkscape:connector-curvature="0" />
    </g>
  </g>
</svg>
